HIERARCHY
ROOT SimulationBone
{
	OFFSET 0.000000 0.000000 0.000000
	CHANNELS 6 Xposition Yposition Zposition Zrotation Yrotation Xrotation 
	JOINT Hips
	{
		OFFSET 0.000000 0.000000 0.000000
		CHANNELS 6 Xposition Yposition Zposition Zrotation Yrotation Xrotation 
		JOINT RightUpLeg
		{
			OFFSET 0.103459 1.857839 10.548500
			CHANNELS 3 Zrotation Yrotation Xrotation
			JOINT RightLeg
			{
				OFFSET 43.500004 -0.000053 -0.000011
				CHANNELS 3 Zrotation Yrotation Xrotation
				JOINT RightFoot
				{
					OFFSET 42.372192 0.000015 -0.000008
					CHANNELS 3 Zrotation Yrotation Xrotation
					JOINT RightToe
					{
						OFFSET 17.300007 0.000002 0.000013
						CHANNELS 3 Zrotation Yrotation Xrotation
						End Site
						{
							OFFSET 0.000000 0.000000 0.000000
						}
					}
				}
			}
		}
		JOINT LeftUpLeg
		{
			OFFSET 0.103460 1.857826 -10.548500
			CHANNELS 3 Zrotation Yrotation Xrotation
			JOINT LeftLeg
			{
				OFFSET 43.500046 -0.000019 0.000011
				CHANNELS 3 Zrotation Yrotation Xrotation
				JOINT LeftFoot
				{
					OFFSET 42.372261 0.000004 0.000012
					CHANNELS 3 Zrotation Yrotation Xrotation
					JOINT LeftToe
					{
						OFFSET 17.299995 -0.000004 0.000006
						CHANNELS 3 Zrotation Yrotation Xrotation
						End Site
						{
							OFFSET 0.000000 0.000000 0.000000
						}
					}
				}
			}
		}
		JOINT Spine
		{
			OFFSET 6.901963 -2.603745 -0.000005
			CHANNELS 3 Zrotation Yrotation Xrotation
			JOINT Spine1
			{
				OFFSET 12.588102 0.000012 0.000012
				CHANNELS 3 Zrotation Yrotation Xrotation
				JOINT Spine2
				{
					OFFSET 12.343202 0.000010 -0.000009
					CHANNELS 3 Zrotation Yrotation Xrotation
					JOINT Neck
					{
						OFFSET 25.832901 -0.000008 0.000006
						CHANNELS 3 Zrotation Yrotation Xrotation
						JOINT Head
						{
							OFFSET 11.766603 0.000007 -0.000001
							CHANNELS 3 Zrotation Yrotation Xrotation
							End Site
							{
								OFFSET 0.000000 0.000000 0.000000
							}
						}
					}
					JOINT RightShoulder
					{
						OFFSET 19.745903 -1.480391 6.000108
						CHANNELS 3 Zrotation Yrotation Xrotation
						JOINT RightArm
						{
							OFFSET 11.284125 -0.000031 -0.000021
							CHANNELS 3 Zrotation Yrotation Xrotation
							JOINT RightForeArm
							{
								OFFSET 33.000046 0.000024 0.000034
								CHANNELS 3 Zrotation Yrotation Xrotation
								JOINT RightHand
								{
									OFFSET 25.200014 0.000020 0.000007
									CHANNELS 3 Zrotation Yrotation Xrotation
									End Site
									{
										OFFSET 0.000000 0.000000 0.000000
									}
								}
							}
						}
					}
					JOINT LeftShoulder
					{
						OFFSET 19.746098 -1.480371 -6.000075
						CHANNELS 3 Zrotation Yrotation Xrotation
						JOINT LeftArm
						{
							OFFSET 11.284128 -0.000021 -0.000009
							CHANNELS 3 Zrotation Yrotation Xrotation
							JOINT LeftForeArm
							{
								OFFSET 33.000095 0.000034 0.000006
								CHANNELS 3 Zrotation Yrotation Xrotation
								JOINT LeftHand
								{
									OFFSET 25.199781 0.000147 0.000427
									CHANNELS 3 Zrotation Yrotation Xrotation
									End Site
									{
										OFFSET 0.000000 0.000000 0.000000
									}
								}
							}
						}
					}
				}
			}
		}
	}
}
MOTION
Frames: 9
Frame Time: 0.016667
104.808806 0.000000 -247.629375 0.000000 7.456196 0.000000 -2.845691 89.613537 -2.236838 86.777297 -4.715838 -178.987118 148.602064 -6.773168 170.716170 -52.192985 5.536924 -6.746406 74.736643 0.538204 -14.107858 21.454562 0.003103 0.000016 166.107288 -5.028971 -171.083754 -26.749486 -1.257744 10.150651 90.296517 -7.942650 -8.244830 21.454549 -0.003093 -0.000001 6.386626 -0.569038 0.535852 2.755244 -1.150355 1.058338 2.437126 -1.144078 1.065265 7.177213 -2.631939 -14.420884 -18.984984 16.697574 -21.804213 -179.548656 -77.302842 -1.900453 15.467805 57.024448 22.398241 -60.480194 -17.412926 2.313890 2.724059 -1.558785 12.326772 -148.209580 81.241957 33.774493 -12.016186 -58.495116 -38.069502 -44.470910 15.049545 -1.582782 11.538157 0.679318 0.064895 
105.719253 0.000000 -248.548227 0.000000 4.356276 0.000000 -3.162143 89.653313 -2.100437 86.100878 -4.253080 -179.521497 149.095570 -7.611297 171.312947 -46.622553 5.972836 -5.159481 74.964699 -0.886212 -15.171305 21.454562 0.003106 0.000016 166.212503 -5.150299 -172.470500 -26.614982 -1.239475 8.736282 90.388790 -6.996442 -8.202879 21.454551 -0.003094 -0.000001 6.378664 -0.494964 0.621165 2.739198 -1.004131 1.230733 2.421113 -0.996818 1.236773 7.033921 -3.048925 -15.302682 -19.885471 16.933420 -23.042002 -179.201050 -77.447107 -2.256956 17.113477 57.405409 24.143758 -60.148892 -17.376852 2.298813 3.072620 -0.534039 12.718045 -147.899778 81.337723 34.085321 -14.730217 -58.658469 -36.082830 -46.988002 15.879367 -1.714107 10.793457 0.984640 -0.090176 
106.648813 0.000000 -249.434421 0.000000 1.219549 0.000000 -3.440594 89.696690 -1.900299 85.472720 -3.750555 179.935402 150.013107 -8.595165 172.422309 -40.496884 5.767797 -3.656018 74.840578 -2.295309 -16.273572 21.454560 0.003108 0.000016 166.361025 -5.261361 -173.959924 -26.431587 -1.127245 7.347407 90.472114 -6.077913 -8.205049 21.454554 -0.003094 -0.000000 6.388549 -0.411227 0.677244 2.759404 -0.838097 1.344730 2.441361 -0.830100 1.349764 6.981604 -3.450494 -16.048004 -20.943260 17.197661 -24.187088 -179.181938 -77.558972 -2.278348 18.929648 57.705986 25.980744 -59.907326 -17.236164 2.279896 3.435803 0.108191 12.642814 -149.123503 81.482941 32.840905 -17.126955 -58.723888 -34.076797 -49.652757 16.538805 -1.841246 9.517656 1.137761 -0.523650 
107.592863 0.000000 -250.286170 0.000000 -1.942712 0.000000 -3.681567 89.739670 -1.645665 84.898902 -3.204838 179.408592 151.291831 -9.759996 174.243194 -34.047327 4.907732 -2.163997 74.430387 -3.632009 -17.039181 21.454558 0.003110 0.000017 166.521870 -5.351898 -175.646279 -26.251683 -0.860306 6.060476 90.558936 -5.235336 -8.240294 21.454557 -0.003093 0.000000 6.410953 -0.315868 0.697978 2.805171 -0.648165 1.388273 2.487158 -0.639908 1.392159 7.035435 -3.815172 -16.642070 -22.093036 17.426792 -25.184131 -179.275021 -77.625867 -2.185067 20.741374 57.910952 27.965838 -59.588236 -17.103463 2.258907 3.670509 0.368344 12.100138 -150.953665 81.734960 30.979630 -19.304111 -58.843410 -32.038022 -52.385351 16.958844 -1.959913 8.145859 1.536585 -1.424807 
108.542790 0.000000 -251.098505 0.000000 -5.119169 0.000000 -3.886977 89.761723 -1.361434 84.370835 -2.600932 178.918889 152.804412 -11.145215 176.803257 -27.607129 3.545912 -0.637202 73.923198 -4.899849 -17.436026 21.454557 0.003110 0.000018 166.604431 -5.417163 -177.510262 -26.214775 -0.431597 4.893085 90.698727 -4.473100 -8.290855 21.454554 -0.003093 -0.000000 6.438831 -0.205819 0.681305 2.862298 -0.428041 1.357419 2.544284 -0.419973 1.359978 7.160905 -4.107920 -17.087738 -23.212972 17.536372 -25.968158 -179.203356 -77.647317 -2.259173 22.318358 58.011197 30.088485 -59.052475 -17.064847 2.236399 3.686417 0.260374 11.165016 -152.137011 82.105105 29.771418 -21.472685 -59.135389 -29.945276 -55.095751 17.114803 -2.065054 7.122510 2.472713 -2.909342 
109.488439 0.000000 -251.862381 0.000000 -8.298003 0.000000 -4.045293 89.710007 -1.112146 83.879689 -1.913087 178.479303 154.375375 -12.617097 179.702058 -21.633178 2.312050 0.503071 73.656486 -6.280025 -19.063321 21.454557 0.003109 0.000018 166.468813 -5.469101 -179.157843 -26.596206 -0.008037 3.664997 91.008902 -3.656147 -8.338442 21.454551 -0.003093 -0.000000 6.474336 -0.081022 0.634474 2.934856 -0.177753 1.266729 2.616825 -0.170235 1.267778 7.255130 -4.269104 -17.410434 -24.179693 17.477570 -26.504447 -179.082014 -77.637813 -2.383076 23.574170 57.927645 32.149208 -58.498684 -16.997680 2.210917 3.653200 -0.057413 10.216288 -152.449846 82.430853 29.446403 -23.706819 -59.469198 -27.880578 -57.754890 17.071353 -2.156501 6.353857 3.528627 -4.564525 
110.426344 0.000000 -252.571607 0.000000 -11.466647 0.000000 -4.169712 89.556140 -0.947814 83.428445 -1.171128 178.109704 155.847021 -13.947535 -177.579250 -16.611822 1.826608 0.948205 73.896494 -7.798635 -22.997022 21.454557 0.003106 0.000017 166.022176 -5.469102 179.712404 -27.574641 0.281997 2.234860 91.566165 -2.681080 -8.366245 21.454552 -0.003090 0.000001 6.521075 0.047638 0.562571 3.029721 0.080845 1.126177 2.711678 0.087511 1.125664 7.243975 -4.252496 -17.627815 -24.920127 17.229041 -26.774203 -179.162540 -77.620154 -2.300328 24.448974 57.603987 33.972107 -58.104681 -16.782963 2.181915 3.736522 -0.429034 9.548740 -152.060609 82.562157 29.836788 -25.925476 -59.710372 -25.981275 -60.349619 16.897665 -2.240381 5.672298 4.214403 -5.979247 
111.358028 0.000000 -253.226036 0.000000 -14.612071 0.000000 -4.316929 89.401894 -0.820449 83.050067 -0.641250 177.871355 157.078450 -14.798098 -175.643383 -13.189987 1.837954 0.781261 74.063060 -8.712453 -26.455106 21.454558 0.003105 0.000016 165.405407 -5.143999 178.652750 -28.824852 0.688545 0.821417 92.216896 -1.711065 -8.382149 21.454555 -0.003088 0.000001 6.579259 0.128524 0.452594 3.146664 0.244952 0.908464 2.828608 0.250298 0.906962 7.236725 -4.086577 -17.706448 -25.561034 16.840543 -26.791189 -179.847063 -77.633776 -1.602035 24.895359 57.126925 35.711086 -57.624365 -16.524239 2.146465 3.857229 -0.875182 8.821182 -151.783807 82.600303 30.115782 -27.732162 -59.947134 -24.335101 -62.861222 16.594520 -2.316283 5.003687 4.437041 -7.324262 
112.281746 0.000000 -253.825599 0.000000 -17.721713 0.000000 -4.519529 89.328914 -0.677354 82.754669 -0.544555 177.808840 157.953019 -14.920801 -175.124801 -11.936966 1.942759 0.206438 73.609723 -8.440603 -26.593724 21.454559 0.003108 0.000017 164.723035 -4.285679 177.254083 -30.092431 1.439659 -0.385349 92.799983 -0.894874 -8.418409 21.454553 -0.003090 0.000001 6.648557 0.118443 0.294153 3.284854 0.228677 0.591501 2.966784 0.232105 0.590104 7.341303 -3.798504 -17.613550 -26.224223 16.367227 -26.572773 178.572534 -77.720042 0.007785 24.906959 56.613918 37.539180 -56.803651 -16.359235 2.104458 3.910825 -1.389173 7.672043 -152.369311 82.666218 29.521872 -28.792888 -60.275207 -22.999999 -65.274438 16.160024 -2.381599 4.311189 4.266116 -8.788435 
